<svg xmlns="http://www.w3.org/2000/svg" viewBox="0 0 64 64" role="img" aria-label="世界杯">
  <defs>
    <radialGradient id="bg" cx="34%" cy="24%" r="72%">
      <stop offset="0%" stop-color="#ffffff"/>
      <stop offset="58%" stop-color="#f4f7fb"/>
      <stop offset="100%" stop-color="#d7e0ee"/>
    </radialGradient>
    <linearGradient id="rim" x1="12" x2="52" y1="8" y2="58">
      <stop offset="0%" stop-color="#49d37f"/>
      <stop offset="52%" stop-color="#2e8cff"/>
      <stop offset="100%" stop-color="#ffb13d"/>
    </linearGradient>
  </defs>
  <circle cx="32" cy="32" r="29" fill="#10233a"/>
  <circle cx="32" cy="32" r="25" fill="url(#rim)"/>
  <circle cx="32" cy="32" r="21" fill="url(#bg)"/>
  <path d="m32 16 8 6-3 10H27l-3-10 8-6Z" fill="#172337"/>
  <path d="m20 24 7-2 3 10-7 6-8-5 5-9Z" fill="#172337"/>
  <path d="m44 24-7-2-3 10 7 6 8-5-5-9Z" fill="#172337"/>
  <path d="m23 38 7-6h4l7 6-3 10H26l-3-10Z" fill="#172337"/>
  <path d="m16 35 7 3 3 10-7-2a21 21 0 0 1-3-11Z" fill="#172337"/>
  <path d="m48 35-7 3-3 10 7-2a21 21 0 0 0 3-11Z" fill="#172337"/>
  <path d="M24 22 18 13M40 22l6-9M19 46l-8 3M45 46l8 3" stroke="#f4f7fb" stroke-width="2.4" stroke-linecap="round" opacity=".78"/>
</svg>
